<svg id="gm-logo-standard" data-name="gommorinMarketingLogo" xmlns="http://www.w3.org/2000/svg" viewBox="0 0 1920 400"><defs><style>.cls-1{fill:#ff5656;}.cls-2{isolation:isolate;}.cls-3{fill:#272727;}</style></defs><g id="SvgjsG1007"><path class="cls-1" d="M354.8,374.5A128,128,0,0,1,255,327c-19.7-24.1-37.2-44.8-51.9-61.8A83,83,0,0,1,210.4,148a76.08,76.08,0,0,1,13.2-9.5L398.4,36.8A82.94,82.94,0,0,1,522,94.8l22.4,136.1a82.41,82.41,0,0,1-43.5,86.9c-22.8,12.1-53.7,26.8-91.3,44.3A125.18,125.18,0,0,1,354.8,374.5ZM232.2,153.8a64.6,64.6,0,0,0-23.4,88.4,72.39,72.39,0,0,0,7.7,10.7c15.2,17,32.8,38.1,52.4,62.2A111.15,111.15,0,0,0,402,345.6c37.1-17.5,67.6-32.3,90.5-44.3a64.91,64.91,0,0,0,34.3-68.1L504.3,97a64.92,64.92,0,0,0-74.6-53.3,63.89,63.89,0,0,0-22.2,8.1Z"/></g><g class="cls-2"><path class="cls-3" d="M154.72,233.52q-11.83-12.79-11.84-32.8t11.84-32.88Q166.57,155,183.6,155t26.16,12.64V155.92h27.36v88.8q0,18.72-10.24,31.2a33,33,0,0,1-14,9.92,55.45,55.45,0,0,1-20.56,3.52q-20.48,0-32.48-8.32t-13.6-25.44h26.88q3.84,10.08,19.2,10.08a16.76,16.76,0,0,0,12.48-5q5-5,5-15.92V232.24q-9.91,14.08-26.56,14.08T154.72,233.52Zm49.12-16.64q5.92-5.76,5.92-16.32t-5.92-16.24a19,19,0,0,0-27.2.08q-5.91,5.76-5.92,16.32T176.64,217a19,19,0,0,0,27.2-.08Z"/><path class="cls-3" d="M257.36,233.68Q243.84,221,243.84,200.4t13.44-33Q270.72,155,290.56,155t33.2,12.4q13.37,12.4,13.36,33t-13.28,33.28q-13.27,12.65-33.12,12.64T257.36,233.68Zm46.48-16.48q5.45-5.76,5.44-16.64T303.68,184a18,18,0,0,0-13.28-5.68A17.75,17.75,0,0,0,277.2,184q-5.52,5.69-5.52,16.56t5.68,16.64A18.17,18.17,0,0,0,290.72,223,17.39,17.39,0,0,0,303.84,217.2Z"/><path class="cls-3" d="M371.2,155.92V169q8.49-14.08,27-14.08a34.66,34.66,0,0,1,17.68,4.48A30.74,30.74,0,0,1,428,172.24a38.29,38.29,0,0,1,12.88-12.56A33.86,33.86,0,0,1,458.56,155q16.32,0,25.92,10.08t9.6,28V245.2h-27.2V196.72q0-8.64-4.56-13.36t-12.56-4.72q-8,0-12.56,4.72t-4.56,13.36V245.2h-27.2V196.72q0-8.64-4.56-13.36t-12.56-4.72q-8,0-12.56,4.72t-4.56,13.36V245.2H343.84V155.92Z"/><path class="cls-3" d="M533.76,155.92V169q8.49-14.08,27-14.08a34.66,34.66,0,0,1,17.68,4.48,30.74,30.74,0,0,1,12.08,12.8,38.29,38.29,0,0,1,12.88-12.56A33.86,33.86,0,0,1,621.12,155Q637.44,155,647,165t9.6,28V245.2h-27.2V196.72q0-8.64-4.56-13.36t-12.56-4.72q-8,0-12.56,4.72t-4.56,13.36V245.2H568V196.72q0-8.64-4.56-13.36t-12.56-4.72q-8,0-12.56,4.72t-4.56,13.36V245.2H506.4V155.92Z"/><path class="cls-3" d="M676.08,233.68Q662.57,221,662.56,200.4t13.44-33Q689.44,155,709.28,155t33.2,12.4q13.37,12.4,13.36,33t-13.28,33.28q-13.27,12.65-33.12,12.64T676.08,233.68Zm46.48-16.48q5.45-5.76,5.44-16.64T722.4,184a18,18,0,0,0-13.28-5.68,17.75,17.75,0,0,0-13.2,5.68q-5.52,5.69-5.52,16.56t5.68,16.64A18.17,18.17,0,0,0,709.44,223,17.39,17.39,0,0,0,722.56,217.2Z"/><path class="cls-3" d="M789.92,155.92v16.64q9.6-17.59,25.6-17.6V182.8H808.8q-9.43,0-14.16,4.48T789.92,203V245.2H762.56V155.92Z"/><path class="cls-3" d="M844.48,145.84a16,16,0,0,1-27.36-11.44,16,16,0,1,1,27.36,11.44Zm-25,99.36V155.92h27.36V245.2Z"/><path class="cls-3" d="M887.36,155.92V169q8.49-14.08,27-14.08,15.36,0,24.88,10.24T948.8,193V245.2H921.6V196.72q0-8.64-4.56-13.36t-12.56-4.72q-8,0-12.56,4.72t-4.56,13.36V245.2H860V155.92Z"/><path class="cls-3" d="M1025.6,155.92V169q8.48-14.08,27-14.08a34.68,34.68,0,0,1,17.68,4.48,30.81,30.81,0,0,1,12.08,12.8,38.29,38.29,0,0,1,12.88-12.56A33.84,33.84,0,0,1,1113,155q16.32,0,25.92,10.08t9.6,28V245.2h-27.2V196.72q0-8.64-4.56-13.36t-12.56-4.72q-8,0-12.56,4.72T1087,196.72V245.2h-27.2V196.72q0-8.64-4.56-13.36t-12.56-4.72q-8,0-12.56,4.72t-4.56,13.36V245.2H998.24V155.92Z"/><path class="cls-3" d="M1166.08,233.52q-11.83-12.79-11.84-32.8t11.84-32.88Q1177.92,155,1195,155t26.16,12.64V155.92h27.36V245.2h-27.36v-13q-9.91,14.08-26.56,14.08T1166.08,233.52Zm49.12-16.64q5.92-5.76,5.92-16.32t-5.92-16.24a19,19,0,0,0-27.2.08q-5.93,5.76-5.92,16.32T1188,217a19,19,0,0,0,27.2-.08Z"/><path class="cls-3" d="M1289,155.92v16.64q9.6-17.59,25.6-17.6V182.8h-6.72q-9.43,0-14.16,4.48T1289,203V245.2H1261.6V155.92Z"/><path class="cls-3" d="M1345.92,245.2h-27.36V126.8h27.36v66.4l27.68-37.28h36.8l-38.24,45.6,38.24,43.68h-36.32l-28.16-35.68Z"/><path class="cls-3" d="M1450.08,246.32q-19.53,0-32-12.56T1405.6,200.4q0-20.81,12.4-33.12T1450.08,155q19.68,0,32.64,12.16t13,33.76a55.54,55.54,0,0,1-.64,8.64H1433.6a15.59,15.59,0,0,0,15,13.44,21.93,21.93,0,0,0,7.76-1,14,14,0,0,0,3.76-2.08,27.43,27.43,0,0,0,3.12-3.44h29.6a39.21,39.21,0,0,1-15.36,21.68Q1465.92,246.32,1450.08,246.32Zm11.68-64.08a17.43,17.43,0,0,0-11.36-3.92,16.16,16.16,0,0,0-11,3.92,17,17,0,0,0-5.6,10.16h33.44A14.55,14.55,0,0,0,1461.76,182.24Z"/><path class="cls-3" d="M1540.32,222h9.76v23.2h-13.92q-15,0-23.28-6.64t-8.24-22.8V178.64h-8.32V155.92h8.32V134.16H1532v21.76h17.92v22.72H1532v37.12Q1532,222,1540.32,222Z"/><path class="cls-3" d="M1582.88,145.84a16.42,16.42,0,1,1,4.64-11.44A15.43,15.43,0,0,1,1582.88,145.84Zm-25,99.36V155.92h27.36V245.2Z"/><path class="cls-3" d="M1625.76,155.92V169q8.48-14.08,27-14.08,15.36,0,24.88,10.24T1687.2,193V245.2H1660V196.72q0-8.64-4.56-13.36t-12.56-4.72q-8,0-12.56,4.72t-4.56,13.36V245.2H1598.4V155.92Z"/><path class="cls-3" d="M1704.8,233.52Q1693,220.73,1693,200.72t11.84-32.88Q1716.64,155,1733.68,155t26.16,12.64V155.92h27.36v88.8q0,18.72-10.24,31.2a33.09,33.09,0,0,1-14,9.92,55.49,55.49,0,0,1-20.56,3.52q-20.49,0-32.48-8.32t-13.6-25.44h26.88q3.84,10.08,19.2,10.08a16.79,16.79,0,0,0,12.48-5q4.95-5,5-15.92V232.24q-9.93,14.08-26.56,14.08T1704.8,233.52Zm49.12-16.64q5.91-5.76,5.92-16.32t-5.92-16.24a19,19,0,0,0-27.2.08q-5.92,5.76-5.92,16.32t5.92,16.24a19,19,0,0,0,27.2-.08Z"/></g></svg>
