<svg id="Layer_1" data-name="Layer 1" xmlns="http://www.w3.org/2000/svg" viewBox="0 0 935.32 899.14"><defs><style>.cls-1{fill:#ff5656;}</style></defs><title>gommorin-logo-isotipo-red-frame</title><g id="SvgjsG1007"><path class="cls-1" d="M516.6,990A329.67,329.67,0,0,1,259.4,867.7c-50.7-62.3-95.8-115.3-133.8-159.2-78.1-88.6-69.6-223.8,19-301.9a209.5,209.5,0,0,1,34-24.5L628.5,120.2c101.6-59.6,232.4-25.5,292,76.1A212.61,212.61,0,0,1,946.9,269l57.7,350.7A213,213,0,0,1,892.7,843.5c-58.8,31.1-138.5,69.2-235.3,114.2A321.28,321.28,0,0,1,516.6,990ZM200.5,421.6a166.26,166.26,0,0,0-40.4,254.8c39.2,43.8,84.2,98,134.9,160.4a286,286,0,0,0,342.6,78.4c95.8-45,174.2-83.1,233-114.2a166.44,166.44,0,0,0,87.7-175.3L900.6,274.9c-15.3-91-101.5-152.3-192.5-137a168.8,168.8,0,0,0-56.7,20.6Z" transform="translate(-72.16 -90.86)"/></g></svg>