<svg xmlns="http://www.w3.org/2000/svg" viewBox="0 0 400 400"><defs><style>.cls-1{fill:#fff;}</style></defs><g id="Layer_2" data-name="Layer 2"><g id="SvgjsG1007"><path class="cls-1" d="M190.21,382.56a133.93,133.93,0,0,1-104.5-49.67C65.09,307.58,46.82,286,31.35,268.22A86,86,0,0,1,10.74,197C15,171.22,30,148.73,52.91,135.61L235.66,29.24A86.65,86.65,0,0,1,365,89.68l23.43,142.46A86.49,86.49,0,0,1,343,323.05c-23.9,12.65-56.23,28.11-95.59,46.39A130.75,130.75,0,0,1,190.21,382.56Zm-128.4-231A67.6,67.6,0,0,0,45.41,255.1c15.93,17.81,34.21,39.83,54.83,65.13A116.21,116.21,0,0,0,239.41,352.1c38.89-18.28,70.76-33.74,94.66-46.39a67.62,67.62,0,0,0,35.61-71.23L346.25,92a66.73,66.73,0,0,0-38-50.14c-20.61-9.84-43.57-8.44-63.26,2.81L61.81,151.54Z"/></g><path class="cls-1" d="M255.6,64v17c-13.38-10.71-35.68-20.52-66-20.52-2.83,0-5.65.15-8.44.36l.1.09L96.13,110.39a115.39,115.39,0,0,0-20.27,65.53A114.11,114.11,0,0,0,189.59,290.54c26.76,0,49.51-7.14,66-21v6.24c0,32.56-23.64,48.61-62,48.61-29.44,0-51.29-12.48-65.12-31.66L83.89,323.1c23.64,33.89,59.32,53.52,110.61,53.52,78.94,0,122.65-47.28,122.65-106.15V64ZM195,236.57c-32.56,0-58.88-26.31-58.88-60.21,0-33,26.32-60.21,58.88-60.21,34.78,0,61.54,27.21,61.54,60.21C256.49,210.26,230.18,236.57,195,236.57Z"/></g></svg>